<mxfile host="app.diagrams.net" modified="2021-04-20T06:22:03.189Z" agent="5.0 (Macintosh; Intel Mac OS X 11_2_3) AppleWebKit/537.36 (KHTML, like Gecko) Chrome/89.0.4389.90 Safari/537.36" etag="fqzDjDSsvSJrEdE7jSpl" version="14.6.3" type="github">
  <diagram id="6a731a19-8d31-9384-78a2-239565b7b9f0" name="Page-1">
    <mxGraphModel dx="4791" dy="2051" grid="1" gridSize="10" guides="1" tooltips="1" connect="1" arrows="1" fold="1" page="1" pageScale="1" pageWidth="1169" pageHeight="827" background="#ffffff" math="0" shadow="0">
      <root>
        <mxCell id="0" />
        <mxCell id="1" parent="0" />
        <mxCell id="1351" value="网" style="ellipse;whiteSpace=wrap;html=1;shadow=0;fontFamily=Helvetica;fontSize=20;fontColor=#FFFFFF;align=center;strokeWidth=3;fillColor=none;strokeColor=#F08705;" parent="1" vertex="1">
          <mxGeometry x="210" y="200" width="1090" height="610" as="geometry" />
        </mxCell>
        <mxCell id="1350" value="源" style="ellipse;whiteSpace=wrap;html=1;shadow=0;fontFamily=Helvetica;fontSize=20;fontColor=#FFFFFF;align=center;strokeWidth=3;fillColor=#1699D3;strokeColor=none;" parent="1" vertex="1">
          <mxGeometry x="645" y="1075" width="120" height="120" as="geometry" />
        </mxCell>
        <mxCell id="1352" value="荷" style="ellipse;whiteSpace=wrap;html=1;shadow=0;fontFamily=Helvetica;fontSize=20;fontColor=#FFFFFF;align=center;strokeWidth=3;fillColor=#E85642;strokeColor=none;" parent="1" vertex="1">
          <mxGeometry x="1490" y="530" width="120" height="120" as="geometry" />
        </mxCell>
        <mxCell id="1354" value="储" style="ellipse;whiteSpace=wrap;html=1;shadow=0;fontFamily=Helvetica;fontSize=20;fontColor=#FFFFFF;align=center;strokeWidth=3;fillColor=#736ca8;strokeColor=none;" parent="1" vertex="1">
          <mxGeometry x="1430" y="1014.5" width="120" height="120" as="geometry" />
        </mxCell>
        <mxCell id="1357" value="状态" style="rounded=1;fillColor=#f5af58;strokeColor=none;strokeWidth=3;shadow=0;html=1;fontColor=#FFFFFF;" parent="1" vertex="1">
          <mxGeometry x="280" y="495" width="120" height="40" as="geometry" />
        </mxCell>
        <mxCell id="1358" value="Dolphin" style="rounded=1;fillColor=#64BBE2;strokeColor=none;strokeWidth=3;shadow=0;html=1;fontColor=#FFFFFF;" parent="1" vertex="1">
          <mxGeometry x="470" y="1220" width="130" height="40" as="geometry" />
        </mxCell>
        <mxCell id="1367" value="Lion" style="rounded=1;fillColor=#64BBE2;strokeColor=none;strokeWidth=3;shadow=0;html=1;fontColor=#FFFFFF;" parent="1" vertex="1">
          <mxGeometry x="540" y="1270" width="130" height="40" as="geometry" />
        </mxCell>
        <mxCell id="1368" value="Elephant" style="rounded=1;fillColor=#64BBE2;strokeColor=none;strokeWidth=3;shadow=0;html=1;fontColor=#FFFFFF;" parent="1" vertex="1">
          <mxGeometry x="440" y="1150" width="130" height="40" as="geometry" />
        </mxCell>
        <mxCell id="1369" value="Cat" style="rounded=1;fillColor=#64BBE2;strokeColor=none;strokeWidth=3;shadow=0;html=1;fontColor=#FFFFFF;" parent="1" vertex="1">
          <mxGeometry x="440" y="1075" width="130" height="40" as="geometry" />
        </mxCell>
        <mxCell id="1370" value="Giraffe" style="rounded=1;fillColor=#64BBE2;strokeColor=none;strokeWidth=3;shadow=0;html=1;fontColor=#FFFFFF;" parent="1" vertex="1">
          <mxGeometry x="480" y="1010" width="130" height="40" as="geometry" />
        </mxCell>
        <mxCell id="1371" value="Dog" style="rounded=1;fillColor=#64BBE2;strokeColor=none;strokeWidth=3;shadow=0;html=1;fontColor=#FFFFFF;" parent="1" vertex="1">
          <mxGeometry x="530" y="950" width="130" height="40" as="geometry" />
        </mxCell>
        <mxCell id="1372" value="Donkey" style="rounded=1;fillColor=#64BBE2;strokeColor=none;strokeWidth=3;shadow=0;html=1;fontColor=#FFFFFF;" parent="1" vertex="1">
          <mxGeometry x="610" y="890" width="130" height="40" as="geometry" />
        </mxCell>
        <mxCell id="1373" value="Leopard" style="rounded=1;fillColor=#64BBE2;strokeColor=none;strokeWidth=3;shadow=0;html=1;fontColor=#FFFFFF;" parent="1" vertex="1">
          <mxGeometry x="730" y="950" width="130" height="40" as="geometry" />
        </mxCell>
        <mxCell id="1374" value="Horse" style="rounded=1;fillColor=#64BBE2;strokeColor=none;strokeWidth=3;shadow=0;html=1;fontColor=#FFFFFF;" parent="1" vertex="1">
          <mxGeometry x="785" y="1010" width="130" height="40" as="geometry" />
        </mxCell>
        <mxCell id="1375" value="Zebra" style="rounded=1;fillColor=#64BBE2;strokeColor=none;strokeWidth=3;shadow=0;html=1;fontColor=#FFFFFF;" parent="1" vertex="1">
          <mxGeometry x="820" y="1070" width="130" height="40" as="geometry" />
        </mxCell>
        <mxCell id="1376" value="Gazelle" style="rounded=1;fillColor=#64BBE2;strokeColor=none;strokeWidth=3;shadow=0;html=1;fontColor=#FFFFFF;" parent="1" vertex="1">
          <mxGeometry x="835" y="1150" width="130" height="40" as="geometry" />
        </mxCell>
        <mxCell id="1377" value="" style="edgeStyle=none;endArrow=none;strokeWidth=3;strokeColor=#64BBE2;html=1;" parent="1" source="1350" target="1376" edge="1">
          <mxGeometry x="-100" y="860" width="100" height="100" as="geometry">
            <mxPoint x="-100" y="960" as="sourcePoint" />
            <mxPoint y="860" as="targetPoint" />
          </mxGeometry>
        </mxCell>
        <mxCell id="1378" value="" style="edgeStyle=none;endArrow=none;strokeWidth=3;strokeColor=#64BBE2;html=1;" parent="1" source="1350" target="1367" edge="1">
          <mxGeometry x="-100" y="860" width="100" height="100" as="geometry">
            <mxPoint x="-100" y="960" as="sourcePoint" />
            <mxPoint y="860" as="targetPoint" />
          </mxGeometry>
        </mxCell>
        <mxCell id="1379" value="" style="edgeStyle=none;endArrow=none;strokeWidth=3;strokeColor=#64BBE2;html=1;" parent="1" source="1350" target="1358" edge="1">
          <mxGeometry x="-100" y="860" width="100" height="100" as="geometry">
            <mxPoint x="-100" y="960" as="sourcePoint" />
            <mxPoint y="860" as="targetPoint" />
          </mxGeometry>
        </mxCell>
        <mxCell id="1380" value="" style="edgeStyle=none;endArrow=none;strokeWidth=3;strokeColor=#64BBE2;html=1;" parent="1" source="1350" target="1368" edge="1">
          <mxGeometry x="-100" y="860" width="100" height="100" as="geometry">
            <mxPoint x="-100" y="960" as="sourcePoint" />
            <mxPoint y="860" as="targetPoint" />
          </mxGeometry>
        </mxCell>
        <mxCell id="1381" value="" style="edgeStyle=none;endArrow=none;strokeWidth=3;strokeColor=#64BBE2;html=1;" parent="1" source="1350" target="1369" edge="1">
          <mxGeometry x="-100" y="860" width="100" height="100" as="geometry">
            <mxPoint x="-100" y="960" as="sourcePoint" />
            <mxPoint y="860" as="targetPoint" />
          </mxGeometry>
        </mxCell>
        <mxCell id="1382" value="" style="edgeStyle=none;endArrow=none;strokeWidth=3;strokeColor=#64BBE2;html=1;" parent="1" source="1350" target="1370" edge="1">
          <mxGeometry x="-100" y="860" width="100" height="100" as="geometry">
            <mxPoint x="-100" y="960" as="sourcePoint" />
            <mxPoint y="860" as="targetPoint" />
          </mxGeometry>
        </mxCell>
        <mxCell id="1383" value="" style="edgeStyle=none;endArrow=none;strokeWidth=3;strokeColor=#64BBE2;html=1;" parent="1" source="1350" target="1371" edge="1">
          <mxGeometry x="-100" y="860" width="100" height="100" as="geometry">
            <mxPoint x="-100" y="960" as="sourcePoint" />
            <mxPoint y="860" as="targetPoint" />
          </mxGeometry>
        </mxCell>
        <mxCell id="1384" value="" style="edgeStyle=none;endArrow=none;strokeWidth=3;strokeColor=#64BBE2;html=1;" parent="1" source="1350" target="1372" edge="1">
          <mxGeometry x="-100" y="860" width="100" height="100" as="geometry">
            <mxPoint x="-100" y="960" as="sourcePoint" />
            <mxPoint y="860" as="targetPoint" />
          </mxGeometry>
        </mxCell>
        <mxCell id="1385" value="" style="edgeStyle=none;endArrow=none;strokeWidth=3;strokeColor=#64BBE2;html=1;" parent="1" source="1350" target="1373" edge="1">
          <mxGeometry x="-100" y="860" width="100" height="100" as="geometry">
            <mxPoint x="-100" y="960" as="sourcePoint" />
            <mxPoint y="860" as="targetPoint" />
          </mxGeometry>
        </mxCell>
        <mxCell id="1386" value="" style="edgeStyle=none;endArrow=none;strokeWidth=3;strokeColor=#64BBE2;html=1;" parent="1" source="1350" target="1374" edge="1">
          <mxGeometry x="-100" y="860" width="100" height="100" as="geometry">
            <mxPoint x="-100" y="960" as="sourcePoint" />
            <mxPoint y="860" as="targetPoint" />
          </mxGeometry>
        </mxCell>
        <mxCell id="1387" value="" style="edgeStyle=none;endArrow=none;strokeWidth=3;strokeColor=#64BBE2;html=1;" parent="1" source="1350" target="1375" edge="1">
          <mxGeometry x="-100" y="860" width="100" height="100" as="geometry">
            <mxPoint x="-100" y="960" as="sourcePoint" />
            <mxPoint y="860" as="targetPoint" />
          </mxGeometry>
        </mxCell>
        <mxCell id="1388" value="机理" style="rounded=1;fillColor=#f5af58;strokeColor=none;strokeWidth=3;shadow=0;html=1;fontColor=#FFFFFF;" parent="1" vertex="1">
          <mxGeometry x="445" y="495" width="120" height="40" as="geometry" />
        </mxCell>
        <mxCell id="1389" value="结构" style="rounded=1;fillColor=#f5af58;strokeColor=none;strokeWidth=3;shadow=0;html=1;fontColor=#FFFFFF;" parent="1" vertex="1">
          <mxGeometry x="600" y="495" width="120" height="40" as="geometry" />
        </mxCell>
        <mxCell id="1399" value="" style="edgeStyle=none;endArrow=none;strokeWidth=3;strokeColor=#F5AF58;html=1;startArrow=block;startFill=1;" parent="1" source="U495OxJO6NoyhL9MvVn5-1544" target="1357" edge="1">
          <mxGeometry x="-420" y="291.5" width="100" height="100" as="geometry">
            <mxPoint x="-420" y="391.5" as="sourcePoint" />
            <mxPoint x="-320" y="291.5" as="targetPoint" />
          </mxGeometry>
        </mxCell>
        <mxCell id="1400" value="" style="edgeStyle=none;endArrow=none;strokeWidth=3;strokeColor=#F5AF58;html=1;startArrow=block;startFill=1;" parent="1" source="U495OxJO6NoyhL9MvVn5-1544" target="1388" edge="1">
          <mxGeometry x="-420" y="291.5" width="100" height="100" as="geometry">
            <mxPoint x="-420" y="391.5" as="sourcePoint" />
            <mxPoint x="-320" y="291.5" as="targetPoint" />
          </mxGeometry>
        </mxCell>
        <mxCell id="1401" value="" style="edgeStyle=none;endArrow=none;strokeWidth=3;strokeColor=#F5AF58;html=1;startArrow=block;startFill=1;" parent="1" source="U495OxJO6NoyhL9MvVn5-1544" target="1389" edge="1">
          <mxGeometry x="-420" y="291.5" width="100" height="100" as="geometry">
            <mxPoint x="-420" y="391.5" as="sourcePoint" />
            <mxPoint x="-320" y="291.5" as="targetPoint" />
          </mxGeometry>
        </mxCell>
        <mxCell id="1411" value="Eagle" style="rounded=1;fillColor=#f08e81;strokeColor=none;strokeWidth=3;shadow=0;html=1;fontColor=#FFFFFF;" parent="1" vertex="1">
          <mxGeometry x="1400" y="690" width="120" height="40" as="geometry" />
        </mxCell>
        <mxCell id="1412" value="Pigeon" style="rounded=1;fillColor=#f08e81;strokeColor=none;strokeWidth=3;shadow=0;html=1;fontColor=#FFFFFF;" parent="1" vertex="1">
          <mxGeometry x="1735" y="575" width="120" height="40" as="geometry" />
        </mxCell>
        <mxCell id="1413" value="Hawk" style="rounded=1;fillColor=#f08e81;strokeColor=none;strokeWidth=3;shadow=0;html=1;fontColor=#FFFFFF;" parent="1" vertex="1">
          <mxGeometry x="1280" y="610" width="120" height="40" as="geometry" />
        </mxCell>
        <mxCell id="1414" value="Falcon" style="rounded=1;fillColor=#f08e81;strokeColor=none;strokeWidth=3;shadow=0;html=1;fontColor=#FFFFFF;" parent="1" vertex="1">
          <mxGeometry x="1310" y="545" width="120" height="40" as="geometry" />
        </mxCell>
        <mxCell id="1415" value="Sparrow" style="rounded=1;fillColor=#f08e81;strokeColor=none;strokeWidth=3;shadow=0;html=1;fontColor=#FFFFFF;" parent="1" vertex="1">
          <mxGeometry x="1330" y="465" width="120" height="40" as="geometry" />
        </mxCell>
        <mxCell id="1416" value="Stork" style="rounded=1;fillColor=#f08e81;strokeColor=none;strokeWidth=3;shadow=0;html=1;fontColor=#FFFFFF;" parent="1" vertex="1">
          <mxGeometry x="1420" y="395" width="120" height="40" as="geometry" />
        </mxCell>
        <mxCell id="1417" value="Flamingo" style="rounded=1;fillColor=#f08e81;strokeColor=none;strokeWidth=3;shadow=0;html=1;fontColor=#FFFFFF;" parent="1" vertex="1">
          <mxGeometry x="1555" y="340" width="120" height="40" as="geometry" />
        </mxCell>
        <mxCell id="1418" value="Penguin" style="rounded=1;fillColor=#f08e81;strokeColor=none;strokeWidth=3;shadow=0;html=1;fontColor=#FFFFFF;" parent="1" vertex="1">
          <mxGeometry x="1650" y="425" width="120" height="40" as="geometry" />
        </mxCell>
        <mxCell id="1419" value="Owl" style="rounded=1;fillColor=#f08e81;strokeColor=none;strokeWidth=3;shadow=0;html=1;fontColor=#FFFFFF;" parent="1" vertex="1">
          <mxGeometry x="1705" y="495" width="120" height="40" as="geometry" />
        </mxCell>
        <mxCell id="1420" value="Albatross" style="rounded=1;fillColor=#f08e81;strokeColor=none;strokeWidth=3;shadow=0;html=1;fontColor=#FFFFFF;" parent="1" vertex="1">
          <mxGeometry x="1480" y="750" width="120" height="40" as="geometry" />
        </mxCell>
        <mxCell id="1421" value="Pelican" style="rounded=1;fillColor=#f08e81;strokeColor=none;strokeWidth=3;shadow=0;html=1;fontColor=#FFFFFF;" parent="1" vertex="1">
          <mxGeometry x="1570" y="680" width="120" height="40" as="geometry" />
        </mxCell>
        <mxCell id="1422" value="Swallow" style="rounded=1;fillColor=#f08e81;strokeColor=none;strokeWidth=3;shadow=0;html=1;fontColor=#FFFFFF;" parent="1" vertex="1">
          <mxGeometry x="1665" y="635" width="120" height="40" as="geometry" />
        </mxCell>
        <mxCell id="1423" value="" style="edgeStyle=none;endArrow=none;strokeWidth=3;strokeColor=#F08E81;html=1;" parent="1" source="1352" target="1411" edge="1">
          <mxGeometry x="-180" y="280" width="100" height="100" as="geometry">
            <mxPoint x="-180" y="380" as="sourcePoint" />
            <mxPoint x="-80" y="280" as="targetPoint" />
          </mxGeometry>
        </mxCell>
        <mxCell id="1424" value="" style="edgeStyle=none;endArrow=none;strokeWidth=3;strokeColor=#F08E81;html=1;" parent="1" source="1352" target="1413" edge="1">
          <mxGeometry x="-180" y="280" width="100" height="100" as="geometry">
            <mxPoint x="-180" y="380" as="sourcePoint" />
            <mxPoint x="-80" y="280" as="targetPoint" />
          </mxGeometry>
        </mxCell>
        <mxCell id="1425" value="" style="edgeStyle=none;endArrow=none;strokeWidth=3;strokeColor=#F08E81;html=1;" parent="1" source="1352" target="1414" edge="1">
          <mxGeometry x="-180" y="280" width="100" height="100" as="geometry">
            <mxPoint x="-180" y="380" as="sourcePoint" />
            <mxPoint x="-80" y="280" as="targetPoint" />
          </mxGeometry>
        </mxCell>
        <mxCell id="1426" value="" style="edgeStyle=none;endArrow=none;strokeWidth=3;strokeColor=#F08E81;html=1;" parent="1" source="1352" target="1415" edge="1">
          <mxGeometry x="-180" y="280" width="100" height="100" as="geometry">
            <mxPoint x="-180" y="380" as="sourcePoint" />
            <mxPoint x="-80" y="280" as="targetPoint" />
          </mxGeometry>
        </mxCell>
        <mxCell id="1427" value="" style="edgeStyle=none;endArrow=none;strokeWidth=3;strokeColor=#F08E81;html=1;" parent="1" source="1352" target="1416" edge="1">
          <mxGeometry x="-180" y="280" width="100" height="100" as="geometry">
            <mxPoint x="-180" y="380" as="sourcePoint" />
            <mxPoint x="-80" y="280" as="targetPoint" />
          </mxGeometry>
        </mxCell>
        <mxCell id="1428" value="" style="edgeStyle=none;endArrow=none;strokeWidth=3;strokeColor=#F08E81;html=1;" parent="1" source="1352" target="1417" edge="1">
          <mxGeometry x="-180" y="280" width="100" height="100" as="geometry">
            <mxPoint x="-180" y="380" as="sourcePoint" />
            <mxPoint x="-80" y="280" as="targetPoint" />
          </mxGeometry>
        </mxCell>
        <mxCell id="1429" value="" style="edgeStyle=none;endArrow=none;strokeWidth=3;strokeColor=#F08E81;html=1;" parent="1" source="1352" target="1418" edge="1">
          <mxGeometry x="-180" y="280" width="100" height="100" as="geometry">
            <mxPoint x="-180" y="380" as="sourcePoint" />
            <mxPoint x="-80" y="280" as="targetPoint" />
          </mxGeometry>
        </mxCell>
        <mxCell id="1430" value="" style="edgeStyle=none;endArrow=none;strokeWidth=3;strokeColor=#F08E81;html=1;" parent="1" source="1352" target="1419" edge="1">
          <mxGeometry x="-180" y="280" width="100" height="100" as="geometry">
            <mxPoint x="-180" y="380" as="sourcePoint" />
            <mxPoint x="-80" y="280" as="targetPoint" />
          </mxGeometry>
        </mxCell>
        <mxCell id="1431" value="" style="edgeStyle=none;endArrow=none;strokeWidth=3;strokeColor=#F08E81;html=1;" parent="1" source="1352" target="1412" edge="1">
          <mxGeometry x="-180" y="280" width="100" height="100" as="geometry">
            <mxPoint x="-180" y="380" as="sourcePoint" />
            <mxPoint x="-80" y="280" as="targetPoint" />
          </mxGeometry>
        </mxCell>
        <mxCell id="1432" value="" style="edgeStyle=none;endArrow=none;strokeWidth=3;strokeColor=#F08E81;html=1;" parent="1" source="1352" target="1422" edge="1">
          <mxGeometry x="-180" y="280" width="100" height="100" as="geometry">
            <mxPoint x="-180" y="380" as="sourcePoint" />
            <mxPoint x="-80" y="280" as="targetPoint" />
          </mxGeometry>
        </mxCell>
        <mxCell id="1433" value="" style="edgeStyle=none;endArrow=none;strokeWidth=3;strokeColor=#F08E81;html=1;" parent="1" source="1352" target="1421" edge="1">
          <mxGeometry x="-180" y="280" width="100" height="100" as="geometry">
            <mxPoint x="-180" y="380" as="sourcePoint" />
            <mxPoint x="-80" y="280" as="targetPoint" />
          </mxGeometry>
        </mxCell>
        <mxCell id="1434" value="" style="edgeStyle=none;endArrow=none;strokeWidth=3;strokeColor=#F08E81;html=1;" parent="1" source="1352" target="1420" edge="1">
          <mxGeometry x="-180" y="280" width="100" height="100" as="geometry">
            <mxPoint x="-180" y="380" as="sourcePoint" />
            <mxPoint x="-80" y="280" as="targetPoint" />
          </mxGeometry>
        </mxCell>
        <mxCell id="1457" value="Streptococcus" style="rounded=1;fillColor=#a29dc5;strokeColor=none;strokeWidth=3;shadow=0;html=1;fontColor=#FFFFFF;" parent="1" vertex="1">
          <mxGeometry x="1365" y="930" width="120" height="40" as="geometry" />
        </mxCell>
        <mxCell id="1458" value="Echericia Colli" style="rounded=1;fillColor=#a29dc5;strokeColor=none;strokeWidth=3;shadow=0;html=1;fontColor=#FFFFFF;" parent="1" vertex="1">
          <mxGeometry x="1350" y="1144.5" width="120" height="40" as="geometry" />
        </mxCell>
        <mxCell id="1459" value="Lactobacyllus" style="rounded=1;fillColor=#a29dc5;strokeColor=none;strokeWidth=3;shadow=0;html=1;fontColor=#FFFFFF;" parent="1" vertex="1">
          <mxGeometry x="1520" y="957" width="120" height="40" as="geometry" />
        </mxCell>
        <mxCell id="1460" value="Helicobacter" style="rounded=1;fillColor=#a29dc5;strokeColor=none;strokeWidth=3;shadow=0;html=1;fontColor=#FFFFFF;" parent="1" vertex="1">
          <mxGeometry x="1620" y="1037" width="120" height="40" as="geometry" />
        </mxCell>
        <mxCell id="1461" value="Bifidobacterium" style="rounded=1;fillColor=#a29dc5;strokeColor=none;strokeWidth=3;shadow=0;html=1;fontColor=#FFFFFF;" parent="1" vertex="1">
          <mxGeometry x="1540" y="1174.5" width="120" height="40" as="geometry" />
        </mxCell>
        <mxCell id="1462" value="Staphyllococcus" style="rounded=1;fillColor=#a29dc5;strokeColor=none;strokeWidth=3;shadow=0;html=1;fontColor=#FFFFFF;" parent="1" vertex="1">
          <mxGeometry x="1270" y="1054.5" width="120" height="40" as="geometry" />
        </mxCell>
        <mxCell id="1463" value="" style="edgeStyle=none;endArrow=none;strokeWidth=3;strokeColor=#A29DC5;html=1;" parent="1" source="1354" target="1460" edge="1">
          <mxGeometry x="-30" y="-260.5" width="100" height="100" as="geometry">
            <mxPoint x="-30" y="-160.5" as="sourcePoint" />
            <mxPoint x="70" y="-260.5" as="targetPoint" />
          </mxGeometry>
        </mxCell>
        <mxCell id="1464" value="" style="edgeStyle=none;endArrow=none;strokeWidth=3;strokeColor=#A29DC5;html=1;" parent="1" source="1354" target="1461" edge="1">
          <mxGeometry x="-30" y="-260.5" width="100" height="100" as="geometry">
            <mxPoint x="-30" y="-160.5" as="sourcePoint" />
            <mxPoint x="70" y="-260.5" as="targetPoint" />
          </mxGeometry>
        </mxCell>
        <mxCell id="1465" value="" style="edgeStyle=none;endArrow=none;strokeWidth=3;strokeColor=#A29DC5;html=1;" parent="1" source="1354" target="1458" edge="1">
          <mxGeometry x="-30" y="-260.5" width="100" height="100" as="geometry">
            <mxPoint x="-30" y="-160.5" as="sourcePoint" />
            <mxPoint x="70" y="-260.5" as="targetPoint" />
          </mxGeometry>
        </mxCell>
        <mxCell id="1466" value="" style="edgeStyle=none;endArrow=none;strokeWidth=3;strokeColor=#A29DC5;html=1;" parent="1" source="1354" target="1462" edge="1">
          <mxGeometry x="-30" y="-260.5" width="100" height="100" as="geometry">
            <mxPoint x="-30" y="-160.5" as="sourcePoint" />
            <mxPoint x="70" y="-260.5" as="targetPoint" />
          </mxGeometry>
        </mxCell>
        <mxCell id="1467" value="" style="edgeStyle=none;endArrow=none;strokeWidth=3;strokeColor=#A29DC5;html=1;" parent="1" source="1354" target="1457" edge="1">
          <mxGeometry x="-30" y="-260.5" width="100" height="100" as="geometry">
            <mxPoint x="-30" y="-160.5" as="sourcePoint" />
            <mxPoint x="70" y="-260.5" as="targetPoint" />
          </mxGeometry>
        </mxCell>
        <mxCell id="1514" style="edgeStyle=orthogonalEdgeStyle;rounded=0;html=1;exitX=0.75;exitY=0;entryX=0.75;entryY=0;startArrow=none;startFill=0;endArrow=block;endFill=1;jettySize=auto;orthogonalLoop=1;strokeColor=#12aab5;strokeWidth=6;fontSize=20;fontColor=#2F5B7C;" parent="1" source="1414" target="1414" edge="1">
          <mxGeometry relative="1" as="geometry" />
        </mxCell>
        <mxCell id="1541" value="" style="edgeStyle=none;endArrow=none;strokeWidth=3;strokeColor=#A29DC5;html=1;" parent="1" source="1354" target="1459" edge="1">
          <mxGeometry x="-1455" y="-565.5" width="100" height="100" as="geometry">
            <mxPoint x="-1455" y="-465.5" as="sourcePoint" />
            <mxPoint x="-1355" y="-565.5" as="targetPoint" />
          </mxGeometry>
        </mxCell>
        <mxCell id="U495OxJO6NoyhL9MvVn5-1542" value="物理世界" style="ellipse;whiteSpace=wrap;html=1;shadow=0;fontFamily=Helvetica;fontSize=20;fontColor=#FFFFFF;align=center;strokeWidth=3;fillColor=#F08705;strokeColor=none;gradientColor=none;" vertex="1" parent="1">
          <mxGeometry x="270" y="575" width="780" height="120" as="geometry" />
        </mxCell>
        <mxCell id="U495OxJO6NoyhL9MvVn5-1543" value="系统应用" style="ellipse;whiteSpace=wrap;html=1;shadow=0;fontFamily=Helvetica;fontSize=20;fontColor=#FFFFFF;align=center;strokeWidth=3;fillColor=#F08705;strokeColor=none;gradientColor=none;" vertex="1" parent="1">
          <mxGeometry x="810" y="330" width="120" height="120" as="geometry" />
        </mxCell>
        <mxCell id="U495OxJO6NoyhL9MvVn5-1544" value="数字孪生" style="ellipse;whiteSpace=wrap;html=1;shadow=0;fontFamily=Helvetica;fontSize=20;fontColor=#FFFFFF;align=center;strokeWidth=3;fillColor=#F08705;strokeColor=none;" vertex="1" parent="1">
          <mxGeometry x="445" y="330" width="120" height="120" as="geometry" />
        </mxCell>
        <mxCell id="U495OxJO6NoyhL9MvVn5-1551" value="智慧供热操作系统" style="rounded=1;fillColor=#f5af58;strokeColor=none;strokeWidth=3;shadow=0;html=1;fontColor=#FFFFFF;" vertex="1" parent="1">
          <mxGeometry x="700" y="220" width="120" height="40" as="geometry" />
        </mxCell>
        <mxCell id="U495OxJO6NoyhL9MvVn5-1557" value="" style="edgeStyle=none;endArrow=none;strokeWidth=5;strokeColor=#F5AF58;html=1;startArrow=block;startFill=1;" edge="1" parent="1" source="1389" target="U495OxJO6NoyhL9MvVn5-1542">
          <mxGeometry x="-410" y="301.5" width="100" height="100" as="geometry">
            <mxPoint x="533.4465456271282" y="467.1959499319389" as="sourcePoint" />
            <mxPoint x="453.5025380710658" y="515" as="targetPoint" />
          </mxGeometry>
        </mxCell>
        <mxCell id="U495OxJO6NoyhL9MvVn5-1558" value="" style="edgeStyle=none;endArrow=block;strokeWidth=5;strokeColor=#F5AF58;html=1;startArrow=none;startFill=0;endFill=1;" edge="1" parent="1" source="U495OxJO6NoyhL9MvVn5-1544" target="U495OxJO6NoyhL9MvVn5-1543">
          <mxGeometry x="-400" y="311.5" width="100" height="100" as="geometry">
            <mxPoint x="615.732681049717" y="488.03156620457594" as="sourcePoint" />
            <mxPoint x="684.2694198183385" y="603.4671809261372" as="targetPoint" />
          </mxGeometry>
        </mxCell>
        <mxCell id="U495OxJO6NoyhL9MvVn5-1559" value="" style="edgeStyle=none;endArrow=none;strokeWidth=3;strokeColor=#F5AF58;html=1;startArrow=block;startFill=1;" edge="1" parent="1" source="U495OxJO6NoyhL9MvVn5-1564" target="U495OxJO6NoyhL9MvVn5-1543">
          <mxGeometry x="-390" y="321.5" width="100" height="100" as="geometry">
            <mxPoint x="870" y="590" as="sourcePoint" />
            <mxPoint x="820" y="436.5" as="targetPoint" />
          </mxGeometry>
        </mxCell>
        <mxCell id="U495OxJO6NoyhL9MvVn5-1560" value="" style="edgeStyle=none;endArrow=none;strokeWidth=5;strokeColor=#F5AF58;html=1;startArrow=block;startFill=1;entryX=0.301;entryY=0.042;entryDx=0;entryDy=0;entryPerimeter=0;" edge="1" parent="1" source="1388" target="U495OxJO6NoyhL9MvVn5-1542">
          <mxGeometry x="-400" y="311.5" width="100" height="100" as="geometry">
            <mxPoint x="670" y="545" as="sourcePoint" />
            <mxPoint x="670" y="585" as="targetPoint" />
          </mxGeometry>
        </mxCell>
        <mxCell id="U495OxJO6NoyhL9MvVn5-1561" value="" style="edgeStyle=none;endArrow=none;strokeWidth=5;strokeColor=#F5AF58;html=1;startArrow=block;startFill=1;entryX=0.088;entryY=0.208;entryDx=0;entryDy=0;entryPerimeter=0;" edge="1" parent="1" source="1357" target="U495OxJO6NoyhL9MvVn5-1542">
          <mxGeometry x="-565.28" y="321.5" width="100" height="100" as="geometry">
            <mxPoint x="339.65234932349335" y="545" as="sourcePoint" />
            <mxPoint x="339.5000000000002" y="590.04" as="targetPoint" />
          </mxGeometry>
        </mxCell>
        <mxCell id="U495OxJO6NoyhL9MvVn5-1562" value="展示" style="rounded=1;fillColor=#f5af58;strokeColor=none;strokeWidth=3;shadow=0;html=1;fontColor=#FFFFFF;" vertex="1" parent="1">
          <mxGeometry x="970" y="310" width="120" height="40" as="geometry" />
        </mxCell>
        <mxCell id="U495OxJO6NoyhL9MvVn5-1563" value="预演" style="rounded=1;fillColor=#f5af58;strokeColor=none;strokeWidth=3;shadow=0;html=1;fontColor=#FFFFFF;" vertex="1" parent="1">
          <mxGeometry x="970" y="410" width="120" height="40" as="geometry" />
        </mxCell>
        <mxCell id="U495OxJO6NoyhL9MvVn5-1564" value="控制" style="rounded=1;fillColor=#f5af58;strokeColor=none;strokeWidth=3;shadow=0;html=1;fontColor=#FFFFFF;" vertex="1" parent="1">
          <mxGeometry x="810" y="495" width="120" height="40" as="geometry" />
        </mxCell>
        <mxCell id="U495OxJO6NoyhL9MvVn5-1565" value="" style="edgeStyle=none;endArrow=none;strokeWidth=5;strokeColor=#F5AF58;html=1;startArrow=block;startFill=1;exitX=0.769;exitY=0.092;exitDx=0;exitDy=0;exitPerimeter=0;" edge="1" parent="1" source="U495OxJO6NoyhL9MvVn5-1542" target="U495OxJO6NoyhL9MvVn5-1564">
          <mxGeometry x="-380" y="331.5" width="100" height="100" as="geometry">
            <mxPoint x="880" y="500" as="sourcePoint" />
            <mxPoint x="880" y="460" as="targetPoint" />
          </mxGeometry>
        </mxCell>
        <mxCell id="U495OxJO6NoyhL9MvVn5-1566" value="网" style="ellipse;whiteSpace=wrap;html=1;shadow=0;fontFamily=Helvetica;fontSize=20;fontColor=#FFFFFF;align=center;strokeWidth=3;fillColor=none;strokeColor=#F08705;" vertex="1" parent="1">
          <mxGeometry x="-1169" y="-360" width="1090" height="610" as="geometry" />
        </mxCell>
        <mxCell id="U495OxJO6NoyhL9MvVn5-1567" value="状态" style="rounded=1;fillColor=#f5af58;strokeColor=none;strokeWidth=3;shadow=0;html=1;fontColor=#FFFFFF;" vertex="1" parent="1">
          <mxGeometry x="-1009" y="-65" width="120" height="40" as="geometry" />
        </mxCell>
        <mxCell id="U495OxJO6NoyhL9MvVn5-1568" value="机理" style="rounded=1;fillColor=#f5af58;strokeColor=none;strokeWidth=3;shadow=0;html=1;fontColor=#FFFFFF;" vertex="1" parent="1">
          <mxGeometry x="-789" y="-65" width="120" height="40" as="geometry" />
        </mxCell>
        <mxCell id="U495OxJO6NoyhL9MvVn5-1569" value="结构" style="rounded=1;fillColor=#f5af58;strokeColor=none;strokeWidth=3;shadow=0;html=1;fontColor=#FFFFFF;" vertex="1" parent="1">
          <mxGeometry x="-569" y="-65" width="120" height="40" as="geometry" />
        </mxCell>
        <mxCell id="U495OxJO6NoyhL9MvVn5-1570" value="" style="edgeStyle=none;endArrow=none;strokeWidth=3;strokeColor=#F5AF58;html=1;startArrow=block;startFill=1;" edge="1" parent="1" source="U495OxJO6NoyhL9MvVn5-1575" target="U495OxJO6NoyhL9MvVn5-1567">
          <mxGeometry x="-1698" y="-268.5" width="100" height="100" as="geometry">
            <mxPoint x="-1698" y="-168.5" as="sourcePoint" />
            <mxPoint x="-1598" y="-268.5" as="targetPoint" />
          </mxGeometry>
        </mxCell>
        <mxCell id="U495OxJO6NoyhL9MvVn5-1571" value="" style="edgeStyle=none;endArrow=none;strokeWidth=3;strokeColor=#F5AF58;html=1;startArrow=block;startFill=1;" edge="1" parent="1" source="U495OxJO6NoyhL9MvVn5-1575" target="U495OxJO6NoyhL9MvVn5-1568">
          <mxGeometry x="-1698" y="-268.5" width="100" height="100" as="geometry">
            <mxPoint x="-1698" y="-168.5" as="sourcePoint" />
            <mxPoint x="-1598" y="-268.5" as="targetPoint" />
          </mxGeometry>
        </mxCell>
        <mxCell id="U495OxJO6NoyhL9MvVn5-1572" value="" style="edgeStyle=none;endArrow=none;strokeWidth=3;strokeColor=#F5AF58;html=1;startArrow=block;startFill=1;" edge="1" parent="1" source="U495OxJO6NoyhL9MvVn5-1575" target="U495OxJO6NoyhL9MvVn5-1569">
          <mxGeometry x="-1698" y="-268.5" width="100" height="100" as="geometry">
            <mxPoint x="-1698" y="-168.5" as="sourcePoint" />
            <mxPoint x="-1598" y="-268.5" as="targetPoint" />
          </mxGeometry>
        </mxCell>
        <mxCell id="U495OxJO6NoyhL9MvVn5-1573" value="物理世界" style="ellipse;whiteSpace=wrap;html=1;shadow=0;fontFamily=Helvetica;fontSize=20;fontColor=#FFFFFF;align=center;strokeWidth=3;fillColor=#F08705;strokeColor=none;gradientColor=none;" vertex="1" parent="1">
          <mxGeometry x="-1009" y="15" width="780" height="120" as="geometry" />
        </mxCell>
        <mxCell id="U495OxJO6NoyhL9MvVn5-1575" value="数字孪生" style="ellipse;whiteSpace=wrap;html=1;shadow=0;fontFamily=Helvetica;fontSize=20;fontColor=#FFFFFF;align=center;strokeWidth=3;fillColor=#F08705;strokeColor=none;" vertex="1" parent="1">
          <mxGeometry x="-1009" y="-230" width="780" height="120" as="geometry" />
        </mxCell>
        <mxCell id="U495OxJO6NoyhL9MvVn5-1576" value="智慧供热操作系统" style="rounded=1;fillColor=#f5af58;strokeColor=none;strokeWidth=3;shadow=0;html=1;fontColor=#FFFFFF;" vertex="1" parent="1">
          <mxGeometry x="-679" y="-340" width="120" height="40" as="geometry" />
        </mxCell>
        <mxCell id="U495OxJO6NoyhL9MvVn5-1577" value="" style="edgeStyle=none;endArrow=none;strokeWidth=3;strokeColor=#F5AF58;html=1;startArrow=block;startFill=1;" edge="1" parent="1" source="U495OxJO6NoyhL9MvVn5-1569" target="U495OxJO6NoyhL9MvVn5-1573">
          <mxGeometry x="-1688" y="-258.5" width="100" height="100" as="geometry">
            <mxPoint x="-744.5534543728718" y="-92.80405006806109" as="sourcePoint" />
            <mxPoint x="-824.4974619289342" y="-45" as="targetPoint" />
          </mxGeometry>
        </mxCell>
        <mxCell id="U495OxJO6NoyhL9MvVn5-1578" value="" style="edgeStyle=none;endArrow=block;strokeWidth=3;strokeColor=#F5AF58;html=1;startArrow=none;startFill=0;endFill=1;" edge="1" parent="1" source="U495OxJO6NoyhL9MvVn5-1575" target="U495OxJO6NoyhL9MvVn5-1584">
          <mxGeometry x="-1678" y="-248.5" width="100" height="100" as="geometry">
            <mxPoint x="-662.267318950283" y="-71.96843379542406" as="sourcePoint" />
            <mxPoint x="-593.7305801816615" y="43.46718092613719" as="targetPoint" />
          </mxGeometry>
        </mxCell>
        <mxCell id="U495OxJO6NoyhL9MvVn5-1580" value="" style="edgeStyle=none;endArrow=none;strokeWidth=3;strokeColor=#F5AF58;html=1;startArrow=block;startFill=1;" edge="1" parent="1" source="U495OxJO6NoyhL9MvVn5-1568" target="U495OxJO6NoyhL9MvVn5-1573">
          <mxGeometry x="-1678" y="-248.5" width="100" height="100" as="geometry">
            <mxPoint x="-608" y="-15" as="sourcePoint" />
            <mxPoint x="-608" y="25" as="targetPoint" />
          </mxGeometry>
        </mxCell>
        <mxCell id="U495OxJO6NoyhL9MvVn5-1581" value="" style="edgeStyle=none;endArrow=none;strokeWidth=3;strokeColor=#F5AF58;html=1;startArrow=block;startFill=1;" edge="1" parent="1" source="U495OxJO6NoyhL9MvVn5-1567" target="U495OxJO6NoyhL9MvVn5-1573">
          <mxGeometry x="-1843.28" y="-238.5" width="100" height="100" as="geometry">
            <mxPoint x="-938.3476506765066" y="-15" as="sourcePoint" />
            <mxPoint x="-938.4999999999998" y="30.039999999999964" as="targetPoint" />
          </mxGeometry>
        </mxCell>
        <mxCell id="U495OxJO6NoyhL9MvVn5-1582" value="展示" style="rounded=1;fillColor=#f5af58;strokeColor=none;strokeWidth=3;shadow=0;html=1;fontColor=#FFFFFF;" vertex="1" parent="1">
          <mxGeometry x="-160" y="-460" width="120" height="40" as="geometry" />
        </mxCell>
        <mxCell id="U495OxJO6NoyhL9MvVn5-1583" value="预演" style="rounded=1;fillColor=#f5af58;strokeColor=none;strokeWidth=3;shadow=0;html=1;fontColor=#FFFFFF;" vertex="1" parent="1">
          <mxGeometry x="70" y="-380" width="120" height="40" as="geometry" />
        </mxCell>
        <mxCell id="U495OxJO6NoyhL9MvVn5-1584" value="控制" style="rounded=1;fillColor=#f5af58;strokeColor=none;strokeWidth=3;shadow=0;html=1;fontColor=#FFFFFF;" vertex="1" parent="1">
          <mxGeometry x="-349" y="-65" width="120" height="40" as="geometry" />
        </mxCell>
        <mxCell id="U495OxJO6NoyhL9MvVn5-1585" value="" style="edgeStyle=none;endArrow=none;strokeWidth=3;strokeColor=#F5AF58;html=1;startArrow=block;startFill=1;" edge="1" parent="1" source="U495OxJO6NoyhL9MvVn5-1573" target="U495OxJO6NoyhL9MvVn5-1584">
          <mxGeometry x="-1658" y="-228.5" width="100" height="100" as="geometry">
            <mxPoint x="-398" y="-60" as="sourcePoint" />
            <mxPoint x="-398" y="-100" as="targetPoint" />
          </mxGeometry>
        </mxCell>
      </root>
    </mxGraphModel>
  </diagram>
</mxfile>
